<svg width="20" height="20" fill="none" xmlns="http://www.w3.org/2000/svg"><path d="M20 .62L19.38 0v12.85l.62-.39V.62zM15.23 6.3l-1.08-.15A15.2 15.2 0 0016.7 4.7v.85a8.9 8.9 0 01-1.46.77z" fill="#000"/><path d="M17.15.3a5.38 5.38 0 01-3 3.24v2.61A15.2 15.2 0 0016.7 4.7v7.93l2.7.23V0l-2.24.3z" fill="url(#paint0_linear)"/><path d="M11.23 18.46l1.15.39-.92-3.23-1.04.06.81 2.78zM9.54 12.7L8.5 8.74l.58-1.9 1.61 5.84H9.54z" fill="#790000"/><path d="M5.7 2.92l1.45-.77L1 20l-1-.7L5.7 2.93z" fill="#B40302"/><path fill-rule="evenodd" clip-rule="evenodd" d="M1 20L7.15 2.15l3.77.7 4.7 15.61-3.24.39-.92-3.23-5 .3-1.08 3.62L1 20zM9.08 6.85l1.61 5.84H7.31l1.77-5.84z" fill="url(#paint1_linear)"/><defs><linearGradient id="paint0_linear" x1="16.77" y1="0" x2="16.77" y2="12.85" gradientUnits="userSpaceOnUse"><stop stop-color="#5B5B5B"/><stop offset="1" stop-color="#141414"/></linearGradient><linearGradient id="paint1_linear" x1="4.54" y1="6.77" x2="14.08" y2="19" gradientUnits="userSpaceOnUse"><stop stop-color="#FA0100"/><stop offset="1" stop-color="#9B0000"/></linearGradient></defs></svg>