<?xml version="1.0" ?><svg id="katman_1" style="enable-background:new 0 0 512 512;" version="1.1" viewBox="0 0 512 512" xml:space="preserve" xmlns="http://www.w3.org/2000/svg" xmlns:xlink="http://www.w3.org/1999/xlink"><style type="text/css">
	.st0{fill:#35495E;}
	.st1{fill:#2C3E50;}
	.st2{fill:#FFFFFF;}
</style><g><g><circle class="st0" cx="256" cy="256" r="250"/></g><path class="st1" d="M497.2,321.8c-0.2-0.2-0.4-0.5-0.6-0.7c-30.4-30.3-60.7-60.7-91.1-91.1c-0.8-0.8-1.7-1.6-2.7-2.3   C356,193.4,309.3,159.2,262.6,125c-3.6-2.7-7.5-3-11.6,0c-33.8,24.8-67.7,49.6-101.5,74.4c-13,9.5-25.9,19-38.9,28.5   c-1.4,1-2.6,2.1-3.3,3.7c-1.4,3.2-0.7,6.4,2.1,9.2c9.5,9.6,19.1,19.1,28.7,28.6c1.2,1.2,1.7,2.4,1.7,4.2c0,35.8,0,71.5-0.1,107.3   c0,3.5,1.1,6.1,3.5,8.5c37.6,37.5,75.1,75.1,112.7,112.6c1.3,1.3,2.4,3.1,4,4.1C373.5,504.2,468.7,426.7,497.2,321.8z"/><g><g><path class="st2" d="M402.8,227.9L260.6,123.8c-2.7-2-6.5-2-9.2,0L109.2,227.9c-3.5,2.5-4.2,7.4-1.7,10.9     c2.5,3.5,7.4,4.2,10.9,1.7L256,139.7l137.6,100.7c1.4,1,3,1.5,4.6,1.5c2.4,0,4.8-1.1,6.3-3.2C407,235.3,406.3,230.5,402.8,227.9z     "/><path class="st2" d="M365.1,242.3c-4.3,0-7.8,3.5-7.8,7.8v124.1H295v-67.7c0-21.5-17.5-39-39-39c-21.5,0-39,17.5-39,39v67.7     h-62.4V250.1c0-4.3-3.5-7.8-7.8-7.8c-4.3,0-7.8,3.5-7.8,7.8v131.9c0,4.3,3.5,7.8,7.8,7.8h77.9c4.1,0,7.5-3.2,7.8-7.2     c0-0.2,0-0.4,0-0.6v-75.5c0-12.9,10.5-23.4,23.4-23.4s23.4,10.5,23.4,23.4v75.5c0,0.2,0,0.4,0,0.6c0.3,4,3.7,7.2,7.8,7.2h77.9     c4.3,0,7.8-3.5,7.8-7.8V250.1C372.9,245.7,369.4,242.3,365.1,242.3z"/></g><g><rect class="st2" height="22.1" width="22.1" x="226" y="197"/><rect class="st2" height="22.1" width="22.1" x="259" y="197"/><rect class="st2" height="22.1" width="22.1" x="226" y="228.1"/><rect class="st2" height="22.1" width="22.1" x="259" y="228.1"/></g></g></g></svg>